<svg xmlns="http://www.w3.org/2000/svg" xmlns:xlink="http://www.w3.org/1999/xlink" contentStyleType="text/css" height="482px" preserveAspectRatio="none" style="width:1338px;height:482px;background:#FFFFFF;" version="1.1" viewBox="0 0 1338 482" width="1338px" zoomAndPan="magnify"><defs/><g><!--class Vehiculo--><g id="elem_Vehiculo"><rect codeLine="1" fill="#F1F1F1" height="196.9688" id="Vehiculo" rx="2.5" ry="2.5" style="stroke:#181818;stroke-width:0.5;" width="263.3369" x="550" y="7"/><ellipse cx="650.5669" cy="23" fill="#A9DCDF" rx="11" ry="11" style="stroke:#181818;stroke-width:1.0;"/><path d="M652.7544,24.7656 L648.6138,24.7656 L648.1919,25.7969 L648.6138,25.7969 Q649.2231,25.7969 649.4888,26.0313 Q649.7544,26.2656 649.7544,26.6563 Q649.7544,27.0313 649.4888,27.2656 Q649.2231,27.5 648.6138,27.5 L646.3169,27.5 Q645.7075,27.5 645.4575,27.2656 Q645.1919,27.0313 645.1919,26.6406 Q645.1919,26.2656 645.4731,26.0313 Q645.7388,25.7813 646.3638,25.7969 L649.0356,19.1406 L647.9263,19.1406 Q647.3169,19.1406 647.0513,18.9063 Q646.7856,18.6719 646.7856,18.2813 Q646.7856,17.9063 647.0513,17.6719 Q647.3169,17.4375 647.9263,17.4375 L651.5981,17.4375 L654.9888,25.7969 Q655.5825,25.7969 655.77,25.9375 Q656.1606,26.2031 656.1606,26.6563 Q656.1606,27.0313 655.895,27.2656 Q655.645,27.5 655.0356,27.5 L652.7388,27.5 Q652.1294,27.5 651.8638,27.2656 Q651.5981,27.0313 651.5981,26.6406 Q651.5981,26.2656 651.8638,26.0313 Q652.1294,25.7969 652.7388,25.7969 L653.1606,25.7969 L652.7544,24.7656 Z M652.0356,23.0625 L650.6763,19.6875 L649.3013,23.0625 L652.0356,23.0625 Z " fill="#000000"/><text fill="#000000" font-family="sans-serif" font-size="14" font-style="italic" lengthAdjust="spacing" textLength="53.7031" x="671.0669" y="28.7969">Vehiculo</text><line style="stroke:#181818;stroke-width:0.5;" x1="551" x2="812.3369" y1="39" y2="39"/><rect fill="none" height="6" style="stroke:#C82930;stroke-width:1.0;" width="6" x="558" y="50.8105"/><text fill="#000000" font-family="sans-serif" font-size="14" lengthAdjust="spacing" textLength="97.2549" x="570" y="58.1074">String matricula</text><rect fill="none" height="6" style="stroke:#C82930;stroke-width:1.0;" width="6" x="558" y="69.4316"/><text fill="#000000" font-family="sans-serif" font-size="14" lengthAdjust="spacing" textLength="79.3584" x="570" y="76.7285">String marca</text><rect fill="none" height="6" style="stroke:#C82930;stroke-width:1.0;" width="6" x="558" y="88.0527"/><text fill="#000000" font-family="sans-serif" font-size="14" lengthAdjust="spacing" textLength="86.3789" x="570" y="95.3496">String modelo</text><rect fill="none" height="6" style="stroke:#C82930;stroke-width:1.0;" width="6" x="558" y="106.6738"/><text fill="#000000" font-family="sans-serif" font-size="14" lengthAdjust="spacing" textLength="86.3652" x="570" y="113.9707">int kilometraje</text><rect fill="none" height="6" style="stroke:#C82930;stroke-width:1.0;" width="6" x="558" y="125.2949"/><text fill="#000000" font-family="sans-serif" font-size="14" lengthAdjust="spacing" textLength="84.0615" x="570" y="132.5918">double precio</text><rect fill="none" height="6" style="stroke:#C82930;stroke-width:1.0;" width="6" x="558" y="143.916"/><text fill="#000000" font-family="sans-serif" font-size="14" lengthAdjust="spacing" textLength="129.9717" x="570" y="151.2129">Persona? propietario</text><line style="stroke:#181818;stroke-width:0.5;" x1="551" x2="812.3369" y1="158.7266" y2="158.7266"/><ellipse cx="561" cy="173.5371" fill="#84BE84" rx="3" ry="3" style="stroke:#038048;stroke-width:1.0;"/><text fill="#000000" font-family="sans-serif" font-size="14" lengthAdjust="spacing" textLength="185.2061" x="570" y="177.834">double calcularDepreciacion()</text><ellipse cx="561" cy="192.1582" fill="#84BE84" rx="3" ry="3" style="stroke:#038048;stroke-width:1.0;"/><text fill="#000000" font-family="sans-serif" font-size="14" lengthAdjust="spacing" textLength="237.3369" x="570" y="196.4551">int calcularRiesgo(Persona conductor)</text></g><!--class Coche--><g id="elem_Coche"><rect codeLine="1" fill="#F1F1F1" height="85.2422" id="Coche" rx="2.5" ry="2.5" style="stroke:#181818;stroke-width:0.5;" width="164.5371" x="346" y="264"/><ellipse cx="403.7842" cy="280" fill="#ADD1B2" rx="11" ry="11" style="stroke:#181818;stroke-width:1.0;"/><path d="M406.5498,275.875 Q406.7061,275.6563 406.8936,275.5469 Q407.0811,275.4375 407.2998,275.4375 Q407.6748,275.4375 407.9092,275.7031 Q408.1436,275.9531 408.1436,276.5625 L408.1436,278.0156 Q408.1436,278.625 407.9092,278.8906 Q407.6748,279.1563 407.2998,279.1563 Q406.9561,279.1563 406.7529,278.9531 Q406.5498,278.7656 406.4404,278.25 Q406.3936,277.8906 406.2061,277.7031 Q405.8779,277.3281 405.2686,277.1094 Q404.6592,276.8906 404.0342,276.8906 Q403.2686,276.8906 402.6279,277.2188 Q402.0029,277.5469 401.5029,278.2969 Q401.0186,279.0469 401.0186,280.0781 L401.0186,281.1719 Q401.0186,282.4063 401.9092,283.2344 Q402.7998,284.0469 404.3936,284.0469 Q405.3311,284.0469 405.9873,283.7969 Q406.3779,283.6406 406.7998,283.2031 Q407.0654,282.9375 407.2061,282.8594 Q407.3623,282.7813 407.5654,282.7813 Q407.8936,282.7813 408.1436,283.0469 Q408.4092,283.2969 408.4092,283.6406 Q408.4092,283.9844 408.0654,284.3906 Q407.5654,284.9688 406.7686,285.2969 Q405.6904,285.75 404.3936,285.75 Q402.8779,285.75 401.6748,285.125 Q400.6904,284.625 400.0029,283.5625 Q399.3154,282.4844 399.3154,281.2031 L399.3154,280.0469 Q399.3154,278.7188 399.9248,277.5781 Q400.5498,276.4219 401.6436,275.8125 Q402.7373,275.1875 403.9717,275.1875 Q404.7061,275.1875 405.3467,275.3594 Q406.0029,275.5156 406.5498,275.875 Z " fill="#000000"/><text fill="#000000" font-family="sans-serif" font-size="14" lengthAdjust="spacing" textLength="40.4688" x="424.2842" y="285.7969">Coche</text><line style="stroke:#181818;stroke-width:0.5;" x1="347" x2="509.5371" y1="296" y2="296"/><rect fill="none" height="6" style="stroke:#C82930;stroke-width:1.0;" width="6" x="354" y="307.8105"/><text fill="#000000" font-family="sans-serif" font-size="14" lengthAdjust="spacing" textLength="114.3926" x="366" y="315.1074">int numeroPuertas</text><rect fill="none" height="6" style="stroke:#C82930;stroke-width:1.0;" width="6" x="354" y="326.4316"/><text fill="#000000" font-family="sans-serif" font-size="14" lengthAdjust="spacing" textLength="138.5371" x="366" y="333.7285">boolean esAutomatico</text><line style="stroke:#181818;stroke-width:0.5;" x1="347" x2="509.5371" y1="341.2422" y2="341.2422"/></g><!--class Moto--><g id="elem_Moto"><rect codeLine="1" fill="#F1F1F1" height="66.6211" id="Moto" rx="2.5" ry="2.5" style="stroke:#181818;stroke-width:0.5;" width="104.5996" x="629" y="273"/><ellipse cx="662.664" cy="289" fill="#ADD1B2" rx="11" ry="11" style="stroke:#181818;stroke-width:1.0;"/><path d="M665.4296,284.875 Q665.5859,284.6563 665.7734,284.5469 Q665.9609,284.4375 666.1796,284.4375 Q666.5546,284.4375 666.789,284.7031 Q667.0234,284.9531 667.0234,285.5625 L667.0234,287.0156 Q667.0234,287.625 666.789,287.8906 Q666.5546,288.1563 666.1796,288.1563 Q665.8359,288.1563 665.6328,287.9531 Q665.4296,287.7656 665.3203,287.25 Q665.2734,286.8906 665.0859,286.7031 Q664.7578,286.3281 664.1484,286.1094 Q663.539,285.8906 662.914,285.8906 Q662.1484,285.8906 661.5078,286.2188 Q660.8828,286.5469 660.3828,287.2969 Q659.8984,288.0469 659.8984,289.0781 L659.8984,290.1719 Q659.8984,291.4063 660.789,292.2344 Q661.6796,293.0469 663.2734,293.0469 Q664.2109,293.0469 664.8671,292.7969 Q665.2578,292.6406 665.6796,292.2031 Q665.9453,291.9375 666.0859,291.8594 Q666.2421,291.7813 666.4453,291.7813 Q666.7734,291.7813 667.0234,292.0469 Q667.289,292.2969 667.289,292.6406 Q667.289,292.9844 666.9453,293.3906 Q666.4453,293.9688 665.6484,294.2969 Q664.5703,294.75 663.2734,294.75 Q661.7578,294.75 660.5546,294.125 Q659.5703,293.625 658.8828,292.5625 Q658.1953,291.4844 658.1953,290.2031 L658.1953,289.0469 Q658.1953,287.7188 658.8046,286.5781 Q659.4296,285.4219 660.5234,284.8125 Q661.6171,284.1875 662.8515,284.1875 Q663.5859,284.1875 664.2265,284.3594 Q664.8828,284.5156 665.4296,284.875 Z " fill="#000000"/><text fill="#000000" font-family="sans-serif" font-size="14" lengthAdjust="spacing" textLength="31.124" x="680.8116" y="294.7969">Moto</text><line style="stroke:#181818;stroke-width:0.5;" x1="630" x2="732.5996" y1="305" y2="305"/><rect fill="none" height="6" style="stroke:#C82930;stroke-width:1.0;" width="6" x="637" y="316.8105"/><text fill="#000000" font-family="sans-serif" font-size="14" lengthAdjust="spacing" textLength="78.5996" x="649" y="324.1074">int cilindrada</text><line style="stroke:#181818;stroke-width:0.5;" x1="630" x2="732.5996" y1="331.6211" y2="331.6211"/></g><!--class Camion--><g id="elem_Camion"><rect codeLine="1" fill="#F1F1F1" height="66.6211" id="Camion" rx="2.5" ry="2.5" style="stroke:#181818;stroke-width:0.5;" width="173.8887" x="769.5" y="273"/><ellipse cx="828.0737" cy="289" fill="#ADD1B2" rx="11" ry="11" style="stroke:#181818;stroke-width:1.0;"/><path d="M830.8394,284.875 Q830.9956,284.6563 831.1831,284.5469 Q831.3706,284.4375 831.5894,284.4375 Q831.9644,284.4375 832.1987,284.7031 Q832.4331,284.9531 832.4331,285.5625 L832.4331,287.0156 Q832.4331,287.625 832.1987,287.8906 Q831.9644,288.1563 831.5894,288.1563 Q831.2456,288.1563 831.0425,287.9531 Q830.8394,287.7656 830.73,287.25 Q830.6831,286.8906 830.4956,286.7031 Q830.1675,286.3281 829.5581,286.1094 Q828.9487,285.8906 828.3237,285.8906 Q827.5581,285.8906 826.9175,286.2188 Q826.2925,286.5469 825.7925,287.2969 Q825.3081,288.0469 825.3081,289.0781 L825.3081,290.1719 Q825.3081,291.4063 826.1987,292.2344 Q827.0894,293.0469 828.6831,293.0469 Q829.6206,293.0469 830.2769,292.7969 Q830.6675,292.6406 831.0894,292.2031 Q831.355,291.9375 831.4956,291.8594 Q831.6519,291.7813 831.855,291.7813 Q832.1831,291.7813 832.4331,292.0469 Q832.6987,292.2969 832.6987,292.6406 Q832.6987,292.9844 832.355,293.3906 Q831.855,293.9688 831.0581,294.2969 Q829.98,294.75 828.6831,294.75 Q827.1675,294.75 825.9644,294.125 Q824.98,293.625 824.2925,292.5625 Q823.605,291.4844 823.605,290.2031 L823.605,289.0469 Q823.605,287.7188 824.2144,286.5781 Q824.8394,285.4219 825.9331,284.8125 Q827.0269,284.1875 828.2612,284.1875 Q828.9956,284.1875 829.6362,284.3594 Q830.2925,284.5156 830.8394,284.875 Z " fill="#000000"/><text fill="#000000" font-family="sans-serif" font-size="14" lengthAdjust="spacing" textLength="48.2412" x="848.5737" y="294.7969">Camion</text><line style="stroke:#181818;stroke-width:0.5;" x1="770.5" x2="942.3887" y1="305" y2="305"/><rect fill="none" height="6" style="stroke:#C82930;stroke-width:1.0;" width="6" x="777.5" y="316.8105"/><text fill="#000000" font-family="sans-serif" font-size="14" lengthAdjust="spacing" textLength="147.8887" x="789.5" y="324.1074">double capacidadCarga</text><line style="stroke:#181818;stroke-width:0.5;" x1="770.5" x2="942.3887" y1="331.6211" y2="331.6211"/></g><!--class Persona--><g id="elem_Persona"><rect codeLine="1" fill="#F1F1F1" height="178.3477" id="Persona" rx="2.5" ry="2.5" style="stroke:#181818;stroke-width:0.5;" width="236.1367" x="848.5" y="16.5"/><ellipse cx="936.2461" cy="32.5" fill="#ADD1B2" rx="11" ry="11" style="stroke:#181818;stroke-width:1.0;"/><path d="M939.0117,28.375 Q939.168,28.1563 939.3555,28.0469 Q939.543,27.9375 939.7617,27.9375 Q940.1367,27.9375 940.3711,28.2031 Q940.6055,28.4531 940.6055,29.0625 L940.6055,30.5156 Q940.6055,31.125 940.3711,31.3906 Q940.1367,31.6563 939.7617,31.6563 Q939.418,31.6563 939.2148,31.4531 Q939.0117,31.2656 938.9023,30.75 Q938.8555,30.3906 938.668,30.2031 Q938.3398,29.8281 937.7305,29.6094 Q937.1211,29.3906 936.4961,29.3906 Q935.7305,29.3906 935.0898,29.7188 Q934.4648,30.0469 933.9648,30.7969 Q933.4805,31.5469 933.4805,32.5781 L933.4805,33.6719 Q933.4805,34.9063 934.3711,35.7344 Q935.2617,36.5469 936.8555,36.5469 Q937.793,36.5469 938.4492,36.2969 Q938.8398,36.1406 939.2617,35.7031 Q939.5273,35.4375 939.668,35.3594 Q939.8242,35.2813 940.0273,35.2813 Q940.3555,35.2813 940.6055,35.5469 Q940.8711,35.7969 940.8711,36.1406 Q940.8711,36.4844 940.5273,36.8906 Q940.0273,37.4688 939.2305,37.7969 Q938.1523,38.25 936.8555,38.25 Q935.3398,38.25 934.1367,37.625 Q933.1523,37.125 932.4648,36.0625 Q931.7773,34.9844 931.7773,33.7031 L931.7773,32.5469 Q931.7773,31.2188 932.3867,30.0781 Q933.0117,28.9219 934.1055,28.3125 Q935.1992,27.6875 936.4336,27.6875 Q937.168,27.6875 937.8086,27.8594 Q938.4648,28.0156 939.0117,28.375 Z " fill="#000000"/><text fill="#000000" font-family="sans-serif" font-size="14" lengthAdjust="spacing" textLength="52.1445" x="956.7461" y="38.2969">Persona</text><line style="stroke:#181818;stroke-width:0.5;" x1="849.5" x2="1083.6367" y1="48.5" y2="48.5"/><rect fill="none" height="6" style="stroke:#C82930;stroke-width:1.0;" width="6" x="856.5" y="60.3105"/><text fill="#000000" font-family="sans-serif" font-size="14" lengthAdjust="spacing" textLength="87.9307" x="868.5" y="67.6074">String nombre</text><rect fill="none" height="6" style="stroke:#C82930;stroke-width:1.0;" width="6" x="856.5" y="78.9316"/><text fill="#000000" font-family="sans-serif" font-size="14" lengthAdjust="spacing" textLength="95.7236" x="868.5" y="86.2285">String apellidos</text><rect fill="none" height="6" style="stroke:#C82930;stroke-width:1.0;" width="6" x="856.5" y="97.5527"/><text fill="#000000" font-family="sans-serif" font-size="14" lengthAdjust="spacing" textLength="59.1445" x="868.5" y="104.8496">String dni</text><rect fill="none" height="6" style="stroke:#C82930;stroke-width:1.0;" width="6" x="856.5" y="116.1738"/><text fill="#000000" font-family="sans-serif" font-size="14" lengthAdjust="spacing" textLength="115.1719" x="868.5" y="123.4707">int anioNacimiento</text><rect fill="none" height="6" style="stroke:#C82930;stroke-width:1.0;" width="6" x="856.5" y="134.7949"/><text fill="#000000" font-family="sans-serif" font-size="14" lengthAdjust="spacing" textLength="210.1367" x="868.5" y="142.0918">LocalDate fechaCaducidadCarnet</text><line style="stroke:#181818;stroke-width:0.5;" x1="849.5" x2="1083.6367" y1="149.6055" y2="149.6055"/><ellipse cx="859.5" cy="164.416" fill="#84BE84" rx="3" ry="3" style="stroke:#038048;stroke-width:1.0;"/><text fill="#000000" font-family="sans-serif" font-size="14" lengthAdjust="spacing" textLength="128.3926" x="868.5" y="168.7129">boolean validarDNI()</text><ellipse cx="859.5" cy="183.0371" fill="#84BE84" rx="3" ry="3" style="stroke:#038048;stroke-width:1.0;"/><text fill="#000000" font-family="sans-serif" font-size="14" lengthAdjust="spacing" textLength="108.9375" x="868.5" y="187.334">int calcularEdad()</text></g><!--class Valorable--><g id="elem_Valorable"><rect codeLine="1" fill="#F1F1F1" height="66.6211" id="Valorable" rx="2.5" ry="2.5" style="stroke:#181818;stroke-width:0.5;" width="211.2061" x="1120" y="72"/><ellipse cx="1191.7773" cy="88" fill="#B4A7E5" rx="11" ry="11" style="stroke:#181818;stroke-width:1.0;"/><path d="M1192.7305,84.6406 L1192.7305,91.2969 L1194.4492,91.2969 Q1195.0586,91.2969 1195.3242,91.5313 Q1195.5898,91.7656 1195.5898,92.1563 Q1195.5898,92.5313 1195.3242,92.7656 Q1195.0586,93 1194.4492,93 L1189.3086,93 Q1188.6992,93 1188.4336,92.7656 Q1188.168,92.5313 1188.168,92.1406 Q1188.168,91.7656 1188.4336,91.5313 Q1188.6992,91.2969 1189.3086,91.2969 L1191.0273,91.2969 L1191.0273,84.6406 L1189.3086,84.6406 Q1188.6992,84.6406 1188.4336,84.4063 Q1188.168,84.1719 1188.168,83.7813 Q1188.168,83.4063 1188.4336,83.1719 Q1188.6992,82.9375 1189.3086,82.9375 L1194.4492,82.9375 Q1195.0586,82.9375 1195.3242,83.1719 Q1195.5898,83.4063 1195.5898,83.7813 Q1195.5898,84.1719 1195.3242,84.4063 Q1195.0586,84.6406 1194.4492,84.6406 L1192.7305,84.6406 Z " fill="#000000"/><text fill="#000000" font-family="sans-serif" font-size="14" font-style="italic" lengthAdjust="spacing" textLength="59.1514" x="1212.2773" y="93.7969">Valorable</text><line style="stroke:#181818;stroke-width:0.5;" x1="1121" x2="1330.2061" y1="104" y2="104"/><line style="stroke:#181818;stroke-width:0.5;" x1="1121" x2="1330.2061" y1="112" y2="112"/><ellipse cx="1131" cy="126.8105" fill="#84BE84" rx="3" ry="3" style="stroke:#038048;stroke-width:1.0;"/><text fill="#000000" font-family="sans-serif" font-size="14" lengthAdjust="spacing" textLength="185.2061" x="1140" y="131.1074">double calcularDepreciacion()</text></g><!--class Sedan--><g id="elem_Sedan"><rect codeLine="1" fill="#F1F1F1" height="66.6211" id="Sedan" rx="2.5" ry="2.5" style="stroke:#181818;stroke-width:0.5;" width="226.8125" x="7" y="409"/><ellipse cx="95.915" cy="425" fill="#ADD1B2" rx="11" ry="11" style="stroke:#181818;stroke-width:1.0;"/><path d="M98.6807,420.875 Q98.8369,420.6563 99.0244,420.5469 Q99.2119,420.4375 99.4307,420.4375 Q99.8057,420.4375 100.04,420.7031 Q100.2744,420.9531 100.2744,421.5625 L100.2744,423.0156 Q100.2744,423.625 100.04,423.8906 Q99.8057,424.1563 99.4307,424.1563 Q99.0869,424.1563 98.8838,423.9531 Q98.6807,423.7656 98.5713,423.25 Q98.5244,422.8906 98.3369,422.7031 Q98.0088,422.3281 97.3994,422.1094 Q96.79,421.8906 96.165,421.8906 Q95.3994,421.8906 94.7588,422.2188 Q94.1338,422.5469 93.6338,423.2969 Q93.1494,424.0469 93.1494,425.0781 L93.1494,426.1719 Q93.1494,427.4063 94.04,428.2344 Q94.9307,429.0469 96.5244,429.0469 Q97.4619,429.0469 98.1182,428.7969 Q98.5088,428.6406 98.9307,428.2031 Q99.1963,427.9375 99.3369,427.8594 Q99.4932,427.7813 99.6963,427.7813 Q100.0244,427.7813 100.2744,428.0469 Q100.54,428.2969 100.54,428.6406 Q100.54,428.9844 100.1963,429.3906 Q99.6963,429.9688 98.8994,430.2969 Q97.8213,430.75 96.5244,430.75 Q95.0088,430.75 93.8057,430.125 Q92.8213,429.625 92.1338,428.5625 Q91.4463,427.4844 91.4463,426.2031 L91.4463,425.0469 Q91.4463,423.7188 92.0557,422.5781 Q92.6807,421.4219 93.7744,420.8125 Q94.8682,420.1875 96.1025,420.1875 Q96.8369,420.1875 97.4775,420.3594 Q98.1338,420.5156 98.6807,420.875 Z " fill="#000000"/><text fill="#000000" font-family="sans-serif" font-size="14" lengthAdjust="spacing" textLength="40.4824" x="116.415" y="430.7969">Sedan</text><line style="stroke:#181818;stroke-width:0.5;" x1="8" x2="232.8125" y1="441" y2="441"/><rect fill="none" height="6" style="stroke:#C82930;stroke-width:1.0;" width="6" x="15" y="452.8105"/><text fill="#000000" font-family="sans-serif" font-size="14" lengthAdjust="spacing" textLength="200.8125" x="27" y="460.1074">boolean tieneMaleteroExtendido</text><line style="stroke:#181818;stroke-width:0.5;" x1="8" x2="232.8125" y1="467.6211" y2="467.6211"/></g><!--class SUV--><g id="elem_SUV"><rect codeLine="1" fill="#F1F1F1" height="66.6211" id="SUV" rx="2.5" ry="2.5" style="stroke:#181818;stroke-width:0.5;" width="151.3096" x="269" y="409"/><ellipse cx="326.0117" cy="425" fill="#ADD1B2" rx="11" ry="11" style="stroke:#181818;stroke-width:1.0;"/><path d="M328.7773,420.875 Q328.9336,420.6563 329.1211,420.5469 Q329.3086,420.4375 329.5273,420.4375 Q329.9023,420.4375 330.1367,420.7031 Q330.3711,420.9531 330.3711,421.5625 L330.3711,423.0156 Q330.3711,423.625 330.1367,423.8906 Q329.9023,424.1563 329.5273,424.1563 Q329.1836,424.1563 328.9805,423.9531 Q328.7773,423.7656 328.668,423.25 Q328.6211,422.8906 328.4336,422.7031 Q328.1055,422.3281 327.4961,422.1094 Q326.8867,421.8906 326.2617,421.8906 Q325.4961,421.8906 324.8555,422.2188 Q324.2305,422.5469 323.7305,423.2969 Q323.2461,424.0469 323.2461,425.0781 L323.2461,426.1719 Q323.2461,427.4063 324.1367,428.2344 Q325.0273,429.0469 326.6211,429.0469 Q327.5586,429.0469 328.2148,428.7969 Q328.6055,428.6406 329.0273,428.2031 Q329.293,427.9375 329.4336,427.8594 Q329.5898,427.7813 329.793,427.7813 Q330.1211,427.7813 330.3711,428.0469 Q330.6367,428.2969 330.6367,428.6406 Q330.6367,428.9844 330.293,429.3906 Q329.793,429.9688 328.9961,430.2969 Q327.918,430.75 326.6211,430.75 Q325.1055,430.75 323.9023,430.125 Q322.918,429.625 322.2305,428.5625 Q321.543,427.4844 321.543,426.2031 L321.543,425.0469 Q321.543,423.7188 322.1523,422.5781 Q322.7773,421.4219 323.8711,420.8125 Q324.9648,420.1875 326.1992,420.1875 Q326.9336,420.1875 327.5742,420.3594 Q328.2305,420.5156 328.7773,420.875 Z " fill="#000000"/><text fill="#000000" font-family="sans-serif" font-size="14" lengthAdjust="spacing" textLength="28.7861" x="346.5117" y="430.7969">SUV</text><line style="stroke:#181818;stroke-width:0.5;" x1="270" x2="419.3096" y1="441" y2="441"/><rect fill="none" height="6" style="stroke:#C82930;stroke-width:1.0;" width="6" x="277" y="452.8105"/><text fill="#000000" font-family="sans-serif" font-size="14" lengthAdjust="spacing" textLength="125.3096" x="289" y="460.1074">boolean traccion4x4</text><line style="stroke:#181818;stroke-width:0.5;" x1="270" x2="419.3096" y1="467.6211" y2="467.6211"/></g><!--class Deportivo--><g id="elem_Deportivo"><rect codeLine="1" fill="#F1F1F1" height="66.6211" id="Deportivo" rx="2.5" ry="2.5" style="stroke:#181818;stroke-width:0.5;" width="117.0547" x="455" y="409"/><ellipse cx="481.312" cy="425" fill="#ADD1B2" rx="11" ry="11" style="stroke:#181818;stroke-width:1.0;"/><path d="M484.0776,420.875 Q484.2338,420.6563 484.4213,420.5469 Q484.6088,420.4375 484.8276,420.4375 Q485.2026,420.4375 485.437,420.7031 Q485.6713,420.9531 485.6713,421.5625 L485.6713,423.0156 Q485.6713,423.625 485.437,423.8906 Q485.2026,424.1563 484.8276,424.1563 Q484.4838,424.1563 484.2807,423.9531 Q484.0776,423.7656 483.9682,423.25 Q483.9213,422.8906 483.7338,422.7031 Q483.4057,422.3281 482.7963,422.1094 Q482.187,421.8906 481.562,421.8906 Q480.7963,421.8906 480.1557,422.2188 Q479.5307,422.5469 479.0307,423.2969 Q478.5463,424.0469 478.5463,425.0781 L478.5463,426.1719 Q478.5463,427.4063 479.437,428.2344 Q480.3276,429.0469 481.9213,429.0469 Q482.8588,429.0469 483.5151,428.7969 Q483.9057,428.6406 484.3276,428.2031 Q484.5932,427.9375 484.7338,427.8594 Q484.8901,427.7813 485.0932,427.7813 Q485.4213,427.7813 485.6713,428.0469 Q485.937,428.2969 485.937,428.6406 Q485.937,428.9844 485.5932,429.3906 Q485.0932,429.9688 484.2963,430.2969 Q483.2182,430.75 481.9213,430.75 Q480.4057,430.75 479.2026,430.125 Q478.2182,429.625 477.5307,428.5625 Q476.8432,427.4844 476.8432,426.2031 L476.8432,425.0469 Q476.8432,423.7188 477.4526,422.5781 Q478.0776,421.4219 479.1713,420.8125 Q480.2651,420.1875 481.4995,420.1875 Q482.2338,420.1875 482.8745,420.3594 Q483.5307,420.5156 484.0776,420.875 Z " fill="#000000"/><text fill="#000000" font-family="sans-serif" font-size="14" lengthAdjust="spacing" textLength="59.917" x="497.8257" y="430.7969">Deportivo</text><line style="stroke:#181818;stroke-width:0.5;" x1="456" x2="571.0547" y1="441" y2="441"/><rect fill="none" height="6" style="stroke:#C82930;stroke-width:1.0;" width="6" x="463" y="452.8105"/><text fill="#000000" font-family="sans-serif" font-size="14" lengthAdjust="spacing" textLength="91.0547" x="475" y="460.1074">int potenciaCV</text><line style="stroke:#181818;stroke-width:0.5;" x1="456" x2="571.0547" y1="467.6211" y2="467.6211"/></g><!--class Scooter--><g id="elem_Scooter"><rect codeLine="1" fill="#F1F1F1" height="66.6211" id="Scooter" rx="2.5" ry="2.5" style="stroke:#181818;stroke-width:0.5;" width="148.1855" x="607.5" y="409"/><ellipse cx="653.2188" cy="425" fill="#ADD1B2" rx="11" ry="11" style="stroke:#181818;stroke-width:1.0;"/><path d="M655.9844,420.875 Q656.1406,420.6563 656.3281,420.5469 Q656.5156,420.4375 656.7344,420.4375 Q657.1094,420.4375 657.3438,420.7031 Q657.5781,420.9531 657.5781,421.5625 L657.5781,423.0156 Q657.5781,423.625 657.3438,423.8906 Q657.1094,424.1563 656.7344,424.1563 Q656.3906,424.1563 656.1875,423.9531 Q655.9844,423.7656 655.875,423.25 Q655.8281,422.8906 655.6406,422.7031 Q655.3125,422.3281 654.7031,422.1094 Q654.0938,421.8906 653.4688,421.8906 Q652.7031,421.8906 652.0625,422.2188 Q651.4375,422.5469 650.9375,423.2969 Q650.4531,424.0469 650.4531,425.0781 L650.4531,426.1719 Q650.4531,427.4063 651.3438,428.2344 Q652.2344,429.0469 653.8281,429.0469 Q654.7656,429.0469 655.4219,428.7969 Q655.8125,428.6406 656.2344,428.2031 Q656.5,427.9375 656.6406,427.8594 Q656.7969,427.7813 657,427.7813 Q657.3281,427.7813 657.5781,428.0469 Q657.8438,428.2969 657.8438,428.6406 Q657.8438,428.9844 657.5,429.3906 Q657,429.9688 656.2031,430.2969 Q655.125,430.75 653.8281,430.75 Q652.3125,430.75 651.1094,430.125 Q650.125,429.625 649.4375,428.5625 Q648.75,427.4844 648.75,426.2031 L648.75,425.0469 Q648.75,423.7188 649.3594,422.5781 Q649.9844,421.4219 651.0781,420.8125 Q652.1719,420.1875 653.4063,420.1875 Q654.1406,420.1875 654.7813,420.3594 Q655.4375,420.5156 655.9844,420.875 Z " fill="#000000"/><text fill="#000000" font-family="sans-serif" font-size="14" lengthAdjust="spacing" textLength="48.248" x="673.7188" y="430.7969">Scooter</text><line style="stroke:#181818;stroke-width:0.5;" x1="608.5" x2="754.6855" y1="441" y2="441"/><rect fill="none" height="6" style="stroke:#C82930;stroke-width:1.0;" width="6" x="615.5" y="452.8105"/><text fill="#000000" font-family="sans-serif" font-size="14" lengthAdjust="spacing" textLength="122.1855" x="627.5" y="460.1074">boolean esElectrica</text><line style="stroke:#181818;stroke-width:0.5;" x1="608.5" x2="754.6855" y1="467.6211" y2="467.6211"/></g><!--class MotoDeportiva--><g id="elem_MotoDeportiva"><rect codeLine="1" fill="#F1F1F1" height="66.6211" id="MotoDeportiva" rx="2.5" ry="2.5" style="stroke:#181818;stroke-width:0.5;" width="207.3506" x="791" y="409"/><ellipse cx="844.9048" cy="425" fill="#ADD1B2" rx="11" ry="11" style="stroke:#181818;stroke-width:1.0;"/><path d="M847.6704,420.875 Q847.8267,420.6563 848.0142,420.5469 Q848.2017,420.4375 848.4204,420.4375 Q848.7954,420.4375 849.0298,420.7031 Q849.2642,420.9531 849.2642,421.5625 L849.2642,423.0156 Q849.2642,423.625 849.0298,423.8906 Q848.7954,424.1563 848.4204,424.1563 Q848.0767,424.1563 847.8735,423.9531 Q847.6704,423.7656 847.561,423.25 Q847.5142,422.8906 847.3267,422.7031 Q846.9985,422.3281 846.3892,422.1094 Q845.7798,421.8906 845.1548,421.8906 Q844.3892,421.8906 843.7485,422.2188 Q843.1235,422.5469 842.6235,423.2969 Q842.1392,424.0469 842.1392,425.0781 L842.1392,426.1719 Q842.1392,427.4063 843.0298,428.2344 Q843.9204,429.0469 845.5142,429.0469 Q846.4517,429.0469 847.1079,428.7969 Q847.4985,428.6406 847.9204,428.2031 Q848.186,427.9375 848.3267,427.8594 Q848.4829,427.7813 848.686,427.7813 Q849.0142,427.7813 849.2642,428.0469 Q849.5298,428.2969 849.5298,428.6406 Q849.5298,428.9844 849.186,429.3906 Q848.686,429.9688 847.8892,430.2969 Q846.811,430.75 845.5142,430.75 Q843.9985,430.75 842.7954,430.125 Q841.811,429.625 841.1235,428.5625 Q840.436,427.4844 840.436,426.2031 L840.436,425.0469 Q840.436,423.7188 841.0454,422.5781 Q841.6704,421.4219 842.7642,420.8125 Q843.8579,420.1875 845.0923,420.1875 Q845.8267,420.1875 846.4673,420.3594 Q847.1235,420.5156 847.6704,420.875 Z " fill="#000000"/><text fill="#000000" font-family="sans-serif" font-size="14" lengthAdjust="spacing" textLength="91.041" x="865.4048" y="430.7969">MotoDeportiva</text><line style="stroke:#181818;stroke-width:0.5;" x1="792" x2="997.3506" y1="441" y2="441"/><rect fill="none" height="6" style="stroke:#C82930;stroke-width:1.0;" width="6" x="799" y="452.8105"/><text fill="#000000" font-family="sans-serif" font-size="14" lengthAdjust="spacing" textLength="181.3506" x="811" y="460.1074">double relacionPesoPotencia</text><line style="stroke:#181818;stroke-width:0.5;" x1="792" x2="997.3506" y1="467.6211" y2="467.6211"/></g><!--reverse link Vehiculo to Coche--><g id="link_Vehiculo_Coche"><path d="M543.074,215.3806 C516.334,236.4206 503.61,246.42 481.38,263.91 " fill="none" id="Vehiculo-backto-Coche" style="stroke:#181818;stroke-width:1.0;"/><polygon fill="none" points="557.22,204.25,539.3638,210.6653,546.7842,220.0959,557.22,204.25" style="stroke:#181818;stroke-width:1.0;"/></g><!--reverse link Vehiculo to Moto--><g id="link_Vehiculo_Moto"><path d="M681.5,222.25 C681.5,247.02 681.5,253.94 681.5,272.85 " fill="none" id="Vehiculo-backto-Moto" style="stroke:#181818;stroke-width:1.0;"/><polygon fill="none" points="681.5,204.25,675.5,222.25,687.5,222.25,681.5,204.25" style="stroke:#181818;stroke-width:1.0;"/></g><!--reverse link Vehiculo to Camion--><g id="link_Vehiculo_Camion"><path d="M779.3459,217.7676 C801.1259,242.5376 811.15,253.94 827.79,272.85 " fill="none" id="Vehiculo-backto-Camion" style="stroke:#181818;stroke-width:1.0;"/><polygon fill="none" points="767.46,204.25,774.84,221.7296,783.8518,213.8056,767.46,204.25" style="stroke:#181818;stroke-width:1.0;"/></g><!--reverse link Coche to Sedan--><g id="link_Coche_Sedan"><path d="M329.4548,350.5918 C282.5948,370.9818 240.89,389.12 195.36,408.93 " fill="none" id="Coche-backto-Sedan" style="stroke:#181818;stroke-width:1.0;"/><polygon fill="none" points="345.96,343.41,327.0609,345.0901,331.8488,356.0936,345.96,343.41" style="stroke:#181818;stroke-width:1.0;"/></g><!--reverse link Coche to SUV--><g id="link_Coche_SUV"><path d="M392.8208,364.4119 C380.7808,383.6219 376.26,390.84 365,408.8 " fill="none" id="Coche-backto-SUV" style="stroke:#181818;stroke-width:1.0;"/><polygon fill="none" points="402.38,349.16,387.7368,361.2255,397.9047,367.5983,402.38,349.16" style="stroke:#181818;stroke-width:1.0;"/></g><!--reverse link Coche to Deportivo--><g id="link_Coche_Deportivo"><path d="M464.5687,364.3619 C476.7487,383.5719 481.36,390.84 492.76,408.8 " fill="none" id="Coche-backto-Deportivo" style="stroke:#181818;stroke-width:1.0;"/><polygon fill="none" points="454.93,349.16,459.5014,367.5747,469.6359,361.149,454.93,349.16" style="stroke:#181818;stroke-width:1.0;"/></g><!--reverse link Moto to Scooter--><g id="link_Moto_Scooter"><path d="M681.5,358.28 C681.5,379.05 681.5,387.8 681.5,408.59 " fill="none" id="Moto-backto-Scooter" style="stroke:#181818;stroke-width:1.0;"/><polygon fill="none" points="681.5,340.28,675.5,358.28,687.5,358.28,681.5,340.28" style="stroke:#181818;stroke-width:1.0;"/></g><!--reverse link Moto to MotoDeportiva--><g id="link_Moto_MotoDeportiva"><path d="M748.5653,349.6957 C781.8153,370.6157 809.58,388.08 842.8,408.98 " fill="none" id="Moto-backto-MotoDeportiva" style="stroke:#181818;stroke-width:1.0;"/><polygon fill="none" points="733.33,340.11,745.3701,354.7741,751.7605,344.6172,733.33,340.11" style="stroke:#181818;stroke-width:1.0;"/></g><!--SRC=[RSun2e0m38NXtLFe1Ro4he9Gx1vhe8MqhzJMypk8ItJzI1x_49AJTd1lsGVN16DkKRhXvGdEix85zND6CI0fNBcSIAJKag3GBdhLy45wmMnMoSmPfOPB1nW7L2u_fU_7qt43]--></g></svg>